<?xml version="1.0" encoding="UTF-8" standalone="no"?><svg xmlns="http://www.w3.org/2000/svg" xmlns:xlink="http://www.w3.org/1999/xlink" contentScriptType="application/ecmascript" contentStyleType="text/css" height="391px" preserveAspectRatio="none" style="width:1608px;height:391px;" version="1.1" viewBox="0 0 1608 391" width="1608px" zoomAndPan="magnify"><defs><filter height="300%" id="fhhpkckf3htea" width="300%" x="-1" y="-1"><feGaussianBlur result="blurOut" stdDeviation="2.0"/><feColorMatrix in="blurOut" result="blurOut2" type="matrix" values="0 0 0 0 0 0 0 0 0 0 0 0 0 0 0 0 0 0 .4 0"/><feOffset dx="4.0" dy="4.0" in="blurOut2" result="blurOut3"/><feBlend in="SourceGraphic" in2="blurOut3" mode="normal"/></filter></defs><g><!--MD5=[7283a9eed84464550b6d5ebf39c68b05]
class Mastermind--><rect fill="#FEFECE" filter="url(#fhhpkckf3htea)" height="48" id="Mastermind" style="stroke: #A80036; stroke-width: 1.5;" width="105" x="614.5" y="8"/><ellipse cx="629.5" cy="24" fill="#ADD1B2" rx="11" ry="11" style="stroke: #A80036; stroke-width: 1.0;"/><path d="M631.8438,19.6719 L632.0156,19.75 C632.2344,19.4375 632.4375,19.3438 632.7344,19.3438 C633.0313,19.3438 633.3125,19.4844 633.4688,19.75 C633.5625,19.9063 633.5781,20.0313 633.5781,20.4688 L633.5781,21.8906 C633.5781,22.3125 633.5469,22.5 633.4375,22.6563 C633.2656,22.875 633,23.0156 632.7344,23.0156 C632.5156,23.0156 632.2813,22.9063 632.1406,22.7656 C632,22.6406 631.9688,22.5156 631.9063,22.1094 C631.8125,21.7031 631.6406,21.4844 631.1563,21.2031 C630.6875,20.9531 630.0781,20.7969 629.5,20.7969 C627.7656,20.7969 626.5156,22.1094 626.5156,23.8906 L626.5156,24.9844 C626.5156,26.6875 627.8125,27.7813 629.8594,27.7813 C630.625,27.7813 631.3125,27.6563 631.7344,27.3906 C631.9219,27.2969 631.9219,27.2969 632.375,26.8125 C632.5625,26.625 632.7656,26.5469 632.9844,26.5469 C633.4531,26.5469 633.8438,26.9375 633.8438,27.3906 C633.8438,27.7813 633.5156,28.2344 632.9375,28.6406 C632.1875,29.1875 631.0313,29.4844 629.8125,29.4844 C626.9219,29.4844 624.8125,27.5938 624.8125,25.0156 L624.8125,23.8906 C624.8125,21.1719 626.8125,19.0938 629.4375,19.0938 C630.3125,19.0938 630.9063,19.2344 631.8438,19.6719 Z "/><text fill="#000000" font-family="sans-serif" font-size="12" lengthAdjust="spacingAndGlyphs" textLength="73" x="643.5" y="28.1543">Mastermind</text><line style="stroke: #A80036; stroke-width: 1.5;" x1="615.5" x2="718.5" y1="40" y2="40"/><line style="stroke: #A80036; stroke-width: 1.5;" x1="615.5" x2="718.5" y1="48" y2="48"/><!--MD5=[42fa18dda7351a0ae87d9497de925436]
class Logic--><rect fill="#FEFECE" filter="url(#fhhpkckf3htea)" height="48" id="Logic" style="stroke: #A80036; stroke-width: 1.5;" width="64" x="477" y="224"/><ellipse cx="492" cy="240" fill="#ADD1B2" rx="11" ry="11" style="stroke: #A80036; stroke-width: 1.0;"/><path d="M494.3438,235.6719 L494.5156,235.75 C494.7344,235.4375 494.9375,235.3438 495.2344,235.3438 C495.5313,235.3438 495.8125,235.4844 495.9688,235.75 C496.0625,235.9063 496.0781,236.0313 496.0781,236.4688 L496.0781,237.8906 C496.0781,238.3125 496.0469,238.5 495.9375,238.6563 C495.7656,238.875 495.5,239.0156 495.2344,239.0156 C495.0156,239.0156 494.7813,238.9063 494.6406,238.7656 C494.5,238.6406 494.4688,238.5156 494.4063,238.1094 C494.3125,237.7031 494.1406,237.4844 493.6563,237.2031 C493.1875,236.9531 492.5781,236.7969 492,236.7969 C490.2656,236.7969 489.0156,238.1094 489.0156,239.8906 L489.0156,240.9844 C489.0156,242.6875 490.3125,243.7813 492.3594,243.7813 C493.125,243.7813 493.8125,243.6563 494.2344,243.3906 C494.4219,243.2969 494.4219,243.2969 494.875,242.8125 C495.0625,242.625 495.2656,242.5469 495.4844,242.5469 C495.9531,242.5469 496.3438,242.9375 496.3438,243.3906 C496.3438,243.7813 496.0156,244.2344 495.4375,244.6406 C494.6875,245.1875 493.5313,245.4844 492.3125,245.4844 C489.4219,245.4844 487.3125,243.5938 487.3125,241.0156 L487.3125,239.8906 C487.3125,237.1719 489.3125,235.0938 491.9375,235.0938 C492.8125,235.0938 493.4063,235.2344 494.3438,235.6719 Z "/><text fill="#000000" font-family="sans-serif" font-size="12" lengthAdjust="spacingAndGlyphs" textLength="32" x="506" y="244.1543">Logic</text><line style="stroke: #A80036; stroke-width: 1.5;" x1="478" x2="540" y1="256" y2="256"/><line style="stroke: #A80036; stroke-width: 1.5;" x1="478" x2="540" y1="264" y2="264"/><!--MD5=[c045e12321b83266d36d22b9096c24ea]
class View--><rect fill="#FEFECE" filter="url(#fhhpkckf3htea)" height="48" id="View" style="stroke: #A80036; stroke-width: 1.5;" width="61" x="689.5" y="116"/><ellipse cx="704.5" cy="132" fill="#B4A7E5" rx="11" ry="11" style="stroke: #A80036; stroke-width: 1.0;"/><path d="M705.4531,128.7813 L705.4531,135.2969 L707.1719,135.2969 C707.625,135.2969 707.7656,135.3281 707.9375,135.4531 C708.1719,135.625 708.2813,135.875 708.2813,136.1563 C708.2813,136.7188 707.9219,137 707.1719,137 L702.0313,137 C701.625,137 701.4219,136.9531 701.2656,136.8281 C701.0469,136.6719 700.9063,136.4063 700.9063,136.1563 C700.9063,135.8594 701.0625,135.5781 701.3125,135.4219 C701.4688,135.3125 701.5938,135.2969 702.0313,135.2969 L703.75,135.2969 L703.75,128.7813 L702.0313,128.7813 C701.6094,128.7813 701.4219,128.75 701.2656,128.6406 C701.0469,128.4688 700.9063,128.2188 700.9063,127.9375 C700.9063,127.6563 701.0625,127.3594 701.3125,127.2031 C701.4688,127.1094 701.5938,127.0938 702.0313,127.0938 L707.1719,127.0938 C707.625,127.0938 707.7656,127.125 707.9375,127.2344 C708.1719,127.4063 708.2813,127.6719 708.2813,127.9375 C708.2813,128.2344 708.1406,128.5156 707.875,128.6719 C707.75,128.75 707.5625,128.7813 707.1719,128.7813 Z "/><text fill="#000000" font-family="sans-serif" font-size="12" font-style="italic" lengthAdjust="spacingAndGlyphs" textLength="29" x="718.5" y="136.1543">View</text><line style="stroke: #A80036; stroke-width: 1.5;" x1="690.5" x2="749.5" y1="148" y2="148"/><line style="stroke: #A80036; stroke-width: 1.5;" x1="690.5" x2="749.5" y1="156" y2="156"/><!--MD5=[1d7ba1c7002d54515419844fbd155368]
class Controller--><rect fill="#FEFECE" filter="url(#fhhpkckf3htea)" height="48" id="Controller" style="stroke: #A80036; stroke-width: 1.5;" width="93" x="589.5" y="224"/><ellipse cx="604.5" cy="240" fill="#ADD1B2" rx="11" ry="11" style="stroke: #A80036; stroke-width: 1.0;"/><path d="M606.8438,235.6719 L607.0156,235.75 C607.2344,235.4375 607.4375,235.3438 607.7344,235.3438 C608.0313,235.3438 608.3125,235.4844 608.4688,235.75 C608.5625,235.9063 608.5781,236.0313 608.5781,236.4688 L608.5781,237.8906 C608.5781,238.3125 608.5469,238.5 608.4375,238.6563 C608.2656,238.875 608,239.0156 607.7344,239.0156 C607.5156,239.0156 607.2813,238.9063 607.1406,238.7656 C607,238.6406 606.9688,238.5156 606.9063,238.1094 C606.8125,237.7031 606.6406,237.4844 606.1563,237.2031 C605.6875,236.9531 605.0781,236.7969 604.5,236.7969 C602.7656,236.7969 601.5156,238.1094 601.5156,239.8906 L601.5156,240.9844 C601.5156,242.6875 602.8125,243.7813 604.8594,243.7813 C605.625,243.7813 606.3125,243.6563 606.7344,243.3906 C606.9219,243.2969 606.9219,243.2969 607.375,242.8125 C607.5625,242.625 607.7656,242.5469 607.9844,242.5469 C608.4531,242.5469 608.8438,242.9375 608.8438,243.3906 C608.8438,243.7813 608.5156,244.2344 607.9375,244.6406 C607.1875,245.1875 606.0313,245.4844 604.8125,245.4844 C601.9219,245.4844 599.8125,243.5938 599.8125,241.0156 L599.8125,239.8906 C599.8125,237.1719 601.8125,235.0938 604.4375,235.0938 C605.3125,235.0938 605.9063,235.2344 606.8438,235.6719 Z "/><text fill="#000000" font-family="sans-serif" font-size="12" lengthAdjust="spacingAndGlyphs" textLength="61" x="618.5" y="244.1543">Controller</text><line style="stroke: #A80036; stroke-width: 1.5;" x1="590.5" x2="681.5" y1="256" y2="256"/><line style="stroke: #A80036; stroke-width: 1.5;" x1="590.5" x2="681.5" y1="264" y2="264"/><!--MD5=[51d729737bd84a4c43136dd336c2eea1]
class ConsoleView--><rect fill="#FEFECE" filter="url(#fhhpkckf3htea)" height="48" id="ConsoleView" style="stroke: #A80036; stroke-width: 1.5;" width="110" x="1119" y="224"/><ellipse cx="1134" cy="240" fill="#ADD1B2" rx="11" ry="11" style="stroke: #A80036; stroke-width: 1.0;"/><path d="M1136.3438,235.6719 L1136.5156,235.75 C1136.7344,235.4375 1136.9375,235.3438 1137.2344,235.3438 C1137.5313,235.3438 1137.8125,235.4844 1137.9688,235.75 C1138.0625,235.9063 1138.0781,236.0313 1138.0781,236.4688 L1138.0781,237.8906 C1138.0781,238.3125 1138.0469,238.5 1137.9375,238.6563 C1137.7656,238.875 1137.5,239.0156 1137.2344,239.0156 C1137.0156,239.0156 1136.7813,238.9063 1136.6406,238.7656 C1136.5,238.6406 1136.4688,238.5156 1136.4063,238.1094 C1136.3125,237.7031 1136.1406,237.4844 1135.6563,237.2031 C1135.1875,236.9531 1134.5781,236.7969 1134,236.7969 C1132.2656,236.7969 1131.0156,238.1094 1131.0156,239.8906 L1131.0156,240.9844 C1131.0156,242.6875 1132.3125,243.7813 1134.3594,243.7813 C1135.125,243.7813 1135.8125,243.6563 1136.2344,243.3906 C1136.4219,243.2969 1136.4219,243.2969 1136.875,242.8125 C1137.0625,242.625 1137.2656,242.5469 1137.4844,242.5469 C1137.9531,242.5469 1138.3438,242.9375 1138.3438,243.3906 C1138.3438,243.7813 1138.0156,244.2344 1137.4375,244.6406 C1136.6875,245.1875 1135.5313,245.4844 1134.3125,245.4844 C1131.4219,245.4844 1129.3125,243.5938 1129.3125,241.0156 L1129.3125,239.8906 C1129.3125,237.1719 1131.3125,235.0938 1133.9375,235.0938 C1134.8125,235.0938 1135.4063,235.2344 1136.3438,235.6719 Z "/><text fill="#000000" font-family="sans-serif" font-size="12" lengthAdjust="spacingAndGlyphs" textLength="78" x="1148" y="244.1543">ConsoleView</text><line style="stroke: #A80036; stroke-width: 1.5;" x1="1120" x2="1228" y1="256" y2="256"/><line style="stroke: #A80036; stroke-width: 1.5;" x1="1120" x2="1228" y1="264" y2="264"/><!--MD5=[94936c1138d9bd95716606726ba703b1]
class SecretCombinationView--><rect fill="#FEFECE" filter="url(#fhhpkckf3htea)" height="48" id="SecretCombinationView" style="stroke: #A80036; stroke-width: 1.5;" width="179" x="972.5" y="332"/><ellipse cx="987.5" cy="348" fill="#ADD1B2" rx="11" ry="11" style="stroke: #A80036; stroke-width: 1.0;"/><path d="M989.8438,343.6719 L990.0156,343.75 C990.2344,343.4375 990.4375,343.3438 990.7344,343.3438 C991.0313,343.3438 991.3125,343.4844 991.4688,343.75 C991.5625,343.9063 991.5781,344.0313 991.5781,344.4688 L991.5781,345.8906 C991.5781,346.3125 991.5469,346.5 991.4375,346.6563 C991.2656,346.875 991,347.0156 990.7344,347.0156 C990.5156,347.0156 990.2813,346.9063 990.1406,346.7656 C990,346.6406 989.9688,346.5156 989.9063,346.1094 C989.8125,345.7031 989.6406,345.4844 989.1563,345.2031 C988.6875,344.9531 988.0781,344.7969 987.5,344.7969 C985.7656,344.7969 984.5156,346.1094 984.5156,347.8906 L984.5156,348.9844 C984.5156,350.6875 985.8125,351.7813 987.8594,351.7813 C988.625,351.7813 989.3125,351.6563 989.7344,351.3906 C989.9219,351.2969 989.9219,351.2969 990.375,350.8125 C990.5625,350.625 990.7656,350.5469 990.9844,350.5469 C991.4531,350.5469 991.8438,350.9375 991.8438,351.3906 C991.8438,351.7813 991.5156,352.2344 990.9375,352.6406 C990.1875,353.1875 989.0313,353.4844 987.8125,353.4844 C984.9219,353.4844 982.8125,351.5938 982.8125,349.0156 L982.8125,347.8906 C982.8125,345.1719 984.8125,343.0938 987.4375,343.0938 C988.3125,343.0938 988.9063,343.2344 989.8438,343.6719 Z "/><text fill="#000000" font-family="sans-serif" font-size="12" lengthAdjust="spacingAndGlyphs" textLength="147" x="1001.5" y="352.1543">SecretCombinationView</text><line style="stroke: #A80036; stroke-width: 1.5;" x1="973.5" x2="1150.5" y1="364" y2="364"/><line style="stroke: #A80036; stroke-width: 1.5;" x1="973.5" x2="1150.5" y1="372" y2="372"/><!--MD5=[0523615cfa2fa70c8ab764401f29a299]
class ProposedCombinationView--><rect fill="#FEFECE" filter="url(#fhhpkckf3htea)" height="48" id="ProposedCombinationView" style="stroke: #A80036; stroke-width: 1.5;" width="198" x="1187" y="332"/><ellipse cx="1202" cy="348" fill="#ADD1B2" rx="11" ry="11" style="stroke: #A80036; stroke-width: 1.0;"/><path d="M1204.3438,343.6719 L1204.5156,343.75 C1204.7344,343.4375 1204.9375,343.3438 1205.2344,343.3438 C1205.5313,343.3438 1205.8125,343.4844 1205.9688,343.75 C1206.0625,343.9063 1206.0781,344.0313 1206.0781,344.4688 L1206.0781,345.8906 C1206.0781,346.3125 1206.0469,346.5 1205.9375,346.6563 C1205.7656,346.875 1205.5,347.0156 1205.2344,347.0156 C1205.0156,347.0156 1204.7813,346.9063 1204.6406,346.7656 C1204.5,346.6406 1204.4688,346.5156 1204.4063,346.1094 C1204.3125,345.7031 1204.1406,345.4844 1203.6563,345.2031 C1203.1875,344.9531 1202.5781,344.7969 1202,344.7969 C1200.2656,344.7969 1199.0156,346.1094 1199.0156,347.8906 L1199.0156,348.9844 C1199.0156,350.6875 1200.3125,351.7813 1202.3594,351.7813 C1203.125,351.7813 1203.8125,351.6563 1204.2344,351.3906 C1204.4219,351.2969 1204.4219,351.2969 1204.875,350.8125 C1205.0625,350.625 1205.2656,350.5469 1205.4844,350.5469 C1205.9531,350.5469 1206.3438,350.9375 1206.3438,351.3906 C1206.3438,351.7813 1206.0156,352.2344 1205.4375,352.6406 C1204.6875,353.1875 1203.5313,353.4844 1202.3125,353.4844 C1199.4219,353.4844 1197.3125,351.5938 1197.3125,349.0156 L1197.3125,347.8906 C1197.3125,345.1719 1199.3125,343.0938 1201.9375,343.0938 C1202.8125,343.0938 1203.4063,343.2344 1204.3438,343.6719 Z "/><text fill="#000000" font-family="sans-serif" font-size="12" lengthAdjust="spacingAndGlyphs" textLength="166" x="1216" y="352.1543">ProposedCombinationView</text><line style="stroke: #A80036; stroke-width: 1.5;" x1="1188" x2="1384" y1="364" y2="364"/><line style="stroke: #A80036; stroke-width: 1.5;" x1="1188" x2="1384" y1="372" y2="372"/><!--MD5=[cc7ea0d03b613c36af8ee78728fe5d91]
class ResultCombinationView--><rect fill="#FEFECE" filter="url(#fhhpkckf3htea)" height="48" id="ResultCombinationView" style="stroke: #A80036; stroke-width: 1.5;" width="177" x="1420.5" y="332"/><ellipse cx="1435.5" cy="348" fill="#ADD1B2" rx="11" ry="11" style="stroke: #A80036; stroke-width: 1.0;"/><path d="M1437.8438,343.6719 L1438.0156,343.75 C1438.2344,343.4375 1438.4375,343.3438 1438.7344,343.3438 C1439.0313,343.3438 1439.3125,343.4844 1439.4688,343.75 C1439.5625,343.9063 1439.5781,344.0313 1439.5781,344.4688 L1439.5781,345.8906 C1439.5781,346.3125 1439.5469,346.5 1439.4375,346.6563 C1439.2656,346.875 1439,347.0156 1438.7344,347.0156 C1438.5156,347.0156 1438.2813,346.9063 1438.1406,346.7656 C1438,346.6406 1437.9688,346.5156 1437.9063,346.1094 C1437.8125,345.7031 1437.6406,345.4844 1437.1563,345.2031 C1436.6875,344.9531 1436.0781,344.7969 1435.5,344.7969 C1433.7656,344.7969 1432.5156,346.1094 1432.5156,347.8906 L1432.5156,348.9844 C1432.5156,350.6875 1433.8125,351.7813 1435.8594,351.7813 C1436.625,351.7813 1437.3125,351.6563 1437.7344,351.3906 C1437.9219,351.2969 1437.9219,351.2969 1438.375,350.8125 C1438.5625,350.625 1438.7656,350.5469 1438.9844,350.5469 C1439.4531,350.5469 1439.8438,350.9375 1439.8438,351.3906 C1439.8438,351.7813 1439.5156,352.2344 1438.9375,352.6406 C1438.1875,353.1875 1437.0313,353.4844 1435.8125,353.4844 C1432.9219,353.4844 1430.8125,351.5938 1430.8125,349.0156 L1430.8125,347.8906 C1430.8125,345.1719 1432.8125,343.0938 1435.4375,343.0938 C1436.3125,343.0938 1436.9063,343.2344 1437.8438,343.6719 Z "/><text fill="#000000" font-family="sans-serif" font-size="12" lengthAdjust="spacingAndGlyphs" textLength="145" x="1449.5" y="352.1543">ResultCombinationView</text><line style="stroke: #A80036; stroke-width: 1.5;" x1="1421.5" x2="1596.5" y1="364" y2="364"/><line style="stroke: #A80036; stroke-width: 1.5;" x1="1421.5" x2="1596.5" y1="372" y2="372"/><!--MD5=[47c371471411cfedeee61b1a5bdaee47]
class StartController--><rect fill="#FEFECE" filter="url(#fhhpkckf3htea)" height="48" id="StartController" style="stroke: #A80036; stroke-width: 1.5;" width="124" x="6" y="332"/><ellipse cx="21" cy="348" fill="#ADD1B2" rx="11" ry="11" style="stroke: #A80036; stroke-width: 1.0;"/><path d="M23.3438,343.6719 L23.5156,343.75 C23.7344,343.4375 23.9375,343.3438 24.2344,343.3438 C24.5313,343.3438 24.8125,343.4844 24.9688,343.75 C25.0625,343.9063 25.0781,344.0313 25.0781,344.4688 L25.0781,345.8906 C25.0781,346.3125 25.0469,346.5 24.9375,346.6563 C24.7656,346.875 24.5,347.0156 24.2344,347.0156 C24.0156,347.0156 23.7813,346.9063 23.6406,346.7656 C23.5,346.6406 23.4688,346.5156 23.4063,346.1094 C23.3125,345.7031 23.1406,345.4844 22.6563,345.2031 C22.1875,344.9531 21.5781,344.7969 21,344.7969 C19.2656,344.7969 18.0156,346.1094 18.0156,347.8906 L18.0156,348.9844 C18.0156,350.6875 19.3125,351.7813 21.3594,351.7813 C22.125,351.7813 22.8125,351.6563 23.2344,351.3906 C23.4219,351.2969 23.4219,351.2969 23.875,350.8125 C24.0625,350.625 24.2656,350.5469 24.4844,350.5469 C24.9531,350.5469 25.3438,350.9375 25.3438,351.3906 C25.3438,351.7813 25.0156,352.2344 24.4375,352.6406 C23.6875,353.1875 22.5313,353.4844 21.3125,353.4844 C18.4219,353.4844 16.3125,351.5938 16.3125,349.0156 L16.3125,347.8906 C16.3125,345.1719 18.3125,343.0938 20.9375,343.0938 C21.8125,343.0938 22.4063,343.2344 23.3438,343.6719 Z "/><text fill="#000000" font-family="sans-serif" font-size="12" lengthAdjust="spacingAndGlyphs" textLength="92" x="35" y="352.1543">StartController</text><line style="stroke: #A80036; stroke-width: 1.5;" x1="7" x2="129" y1="364" y2="364"/><line style="stroke: #A80036; stroke-width: 1.5;" x1="7" x2="129" y1="372" y2="372"/><!--MD5=[92433bfbd7559c1d4e4a44c9d1c48b0e]
class ProposeCombinationController--><rect fill="#FEFECE" filter="url(#fhhpkckf3htea)" height="48" id="ProposeCombinationController" style="stroke: #A80036; stroke-width: 1.5;" width="223" x="165.5" y="332"/><ellipse cx="180.5" cy="348" fill="#ADD1B2" rx="11" ry="11" style="stroke: #A80036; stroke-width: 1.0;"/><path d="M182.8438,343.6719 L183.0156,343.75 C183.2344,343.4375 183.4375,343.3438 183.7344,343.3438 C184.0313,343.3438 184.3125,343.4844 184.4688,343.75 C184.5625,343.9063 184.5781,344.0313 184.5781,344.4688 L184.5781,345.8906 C184.5781,346.3125 184.5469,346.5 184.4375,346.6563 C184.2656,346.875 184,347.0156 183.7344,347.0156 C183.5156,347.0156 183.2813,346.9063 183.1406,346.7656 C183,346.6406 182.9688,346.5156 182.9063,346.1094 C182.8125,345.7031 182.6406,345.4844 182.1563,345.2031 C181.6875,344.9531 181.0781,344.7969 180.5,344.7969 C178.7656,344.7969 177.5156,346.1094 177.5156,347.8906 L177.5156,348.9844 C177.5156,350.6875 178.8125,351.7813 180.8594,351.7813 C181.625,351.7813 182.3125,351.6563 182.7344,351.3906 C182.9219,351.2969 182.9219,351.2969 183.375,350.8125 C183.5625,350.625 183.7656,350.5469 183.9844,350.5469 C184.4531,350.5469 184.8438,350.9375 184.8438,351.3906 C184.8438,351.7813 184.5156,352.2344 183.9375,352.6406 C183.1875,353.1875 182.0313,353.4844 180.8125,353.4844 C177.9219,353.4844 175.8125,351.5938 175.8125,349.0156 L175.8125,347.8906 C175.8125,345.1719 177.8125,343.0938 180.4375,343.0938 C181.3125,343.0938 181.9063,343.2344 182.8438,343.6719 Z "/><text fill="#000000" font-family="sans-serif" font-size="12" lengthAdjust="spacingAndGlyphs" textLength="191" x="194.5" y="352.1543">ProposeCombinationController</text><line style="stroke: #A80036; stroke-width: 1.5;" x1="166.5" x2="387.5" y1="364" y2="364"/><line style="stroke: #A80036; stroke-width: 1.5;" x1="166.5" x2="387.5" y1="372" y2="372"/><!--MD5=[1a47bbf44ccee225df9b18c5b6629853]
class ResumeController--><rect fill="#FEFECE" filter="url(#fhhpkckf3htea)" height="48" id="ResumeController" style="stroke: #A80036; stroke-width: 1.5;" width="143" x="423.5" y="332"/><ellipse cx="438.5" cy="348" fill="#ADD1B2" rx="11" ry="11" style="stroke: #A80036; stroke-width: 1.0;"/><path d="M440.8438,343.6719 L441.0156,343.75 C441.2344,343.4375 441.4375,343.3438 441.7344,343.3438 C442.0313,343.3438 442.3125,343.4844 442.4688,343.75 C442.5625,343.9063 442.5781,344.0313 442.5781,344.4688 L442.5781,345.8906 C442.5781,346.3125 442.5469,346.5 442.4375,346.6563 C442.2656,346.875 442,347.0156 441.7344,347.0156 C441.5156,347.0156 441.2813,346.9063 441.1406,346.7656 C441,346.6406 440.9688,346.5156 440.9063,346.1094 C440.8125,345.7031 440.6406,345.4844 440.1563,345.2031 C439.6875,344.9531 439.0781,344.7969 438.5,344.7969 C436.7656,344.7969 435.5156,346.1094 435.5156,347.8906 L435.5156,348.9844 C435.5156,350.6875 436.8125,351.7813 438.8594,351.7813 C439.625,351.7813 440.3125,351.6563 440.7344,351.3906 C440.9219,351.2969 440.9219,351.2969 441.375,350.8125 C441.5625,350.625 441.7656,350.5469 441.9844,350.5469 C442.4531,350.5469 442.8438,350.9375 442.8438,351.3906 C442.8438,351.7813 442.5156,352.2344 441.9375,352.6406 C441.1875,353.1875 440.0313,353.4844 438.8125,353.4844 C435.9219,353.4844 433.8125,351.5938 433.8125,349.0156 L433.8125,347.8906 C433.8125,345.1719 435.8125,343.0938 438.4375,343.0938 C439.3125,343.0938 439.9063,343.2344 440.8438,343.6719 Z "/><text fill="#000000" font-family="sans-serif" font-size="12" lengthAdjust="spacingAndGlyphs" textLength="111" x="452.5" y="352.1543">ResumeController</text><line style="stroke: #A80036; stroke-width: 1.5;" x1="424.5" x2="565.5" y1="364" y2="364"/><line style="stroke: #A80036; stroke-width: 1.5;" x1="424.5" x2="565.5" y1="372" y2="372"/><!--MD5=[b6dcce5e5ef3c84b0b048d11301373dd]
class Game--><rect fill="#FEFECE" filter="url(#fhhpkckf3htea)" height="48" id="Game" style="stroke: #A80036; stroke-width: 1.5;" width="68" x="602" y="332"/><ellipse cx="617" cy="348" fill="#ADD1B2" rx="11" ry="11" style="stroke: #A80036; stroke-width: 1.0;"/><path d="M619.3438,343.6719 L619.5156,343.75 C619.7344,343.4375 619.9375,343.3438 620.2344,343.3438 C620.5313,343.3438 620.8125,343.4844 620.9688,343.75 C621.0625,343.9063 621.0781,344.0313 621.0781,344.4688 L621.0781,345.8906 C621.0781,346.3125 621.0469,346.5 620.9375,346.6563 C620.7656,346.875 620.5,347.0156 620.2344,347.0156 C620.0156,347.0156 619.7813,346.9063 619.6406,346.7656 C619.5,346.6406 619.4688,346.5156 619.4063,346.1094 C619.3125,345.7031 619.1406,345.4844 618.6563,345.2031 C618.1875,344.9531 617.5781,344.7969 617,344.7969 C615.2656,344.7969 614.0156,346.1094 614.0156,347.8906 L614.0156,348.9844 C614.0156,350.6875 615.3125,351.7813 617.3594,351.7813 C618.125,351.7813 618.8125,351.6563 619.2344,351.3906 C619.4219,351.2969 619.4219,351.2969 619.875,350.8125 C620.0625,350.625 620.2656,350.5469 620.4844,350.5469 C620.9531,350.5469 621.3438,350.9375 621.3438,351.3906 C621.3438,351.7813 621.0156,352.2344 620.4375,352.6406 C619.6875,353.1875 618.5313,353.4844 617.3125,353.4844 C614.4219,353.4844 612.3125,351.5938 612.3125,349.0156 L612.3125,347.8906 C612.3125,345.1719 614.3125,343.0938 616.9375,343.0938 C617.8125,343.0938 618.4063,343.2344 619.3438,343.6719 Z "/><text fill="#000000" font-family="sans-serif" font-size="12" lengthAdjust="spacingAndGlyphs" textLength="36" x="631" y="352.1543">Game</text><line style="stroke: #A80036; stroke-width: 1.5;" x1="603" x2="669" y1="364" y2="364"/><line style="stroke: #A80036; stroke-width: 1.5;" x1="603" x2="669" y1="372" y2="372"/><!--MD5=[60d6b92408f98aed8df94d5c6e04aa63]
class State--><rect fill="#FEFECE" filter="url(#fhhpkckf3htea)" height="48" id="State" style="stroke: #A80036; stroke-width: 1.5;" width="66" x="705" y="332"/><ellipse cx="720" cy="348" fill="#ADD1B2" rx="11" ry="11" style="stroke: #A80036; stroke-width: 1.0;"/><path d="M722.3438,343.6719 L722.5156,343.75 C722.7344,343.4375 722.9375,343.3438 723.2344,343.3438 C723.5313,343.3438 723.8125,343.4844 723.9688,343.75 C724.0625,343.9063 724.0781,344.0313 724.0781,344.4688 L724.0781,345.8906 C724.0781,346.3125 724.0469,346.5 723.9375,346.6563 C723.7656,346.875 723.5,347.0156 723.2344,347.0156 C723.0156,347.0156 722.7813,346.9063 722.6406,346.7656 C722.5,346.6406 722.4688,346.5156 722.4063,346.1094 C722.3125,345.7031 722.1406,345.4844 721.6563,345.2031 C721.1875,344.9531 720.5781,344.7969 720,344.7969 C718.2656,344.7969 717.0156,346.1094 717.0156,347.8906 L717.0156,348.9844 C717.0156,350.6875 718.3125,351.7813 720.3594,351.7813 C721.125,351.7813 721.8125,351.6563 722.2344,351.3906 C722.4219,351.2969 722.4219,351.2969 722.875,350.8125 C723.0625,350.625 723.2656,350.5469 723.4844,350.5469 C723.9531,350.5469 724.3438,350.9375 724.3438,351.3906 C724.3438,351.7813 724.0156,352.2344 723.4375,352.6406 C722.6875,353.1875 721.5313,353.4844 720.3125,353.4844 C717.4219,353.4844 715.3125,351.5938 715.3125,349.0156 L715.3125,347.8906 C715.3125,345.1719 717.3125,343.0938 719.9375,343.0938 C720.8125,343.0938 721.4063,343.2344 722.3438,343.6719 Z "/><text fill="#000000" font-family="sans-serif" font-size="12" lengthAdjust="spacingAndGlyphs" textLength="34" x="734" y="352.1543">State</text><line style="stroke: #A80036; stroke-width: 1.5;" x1="706" x2="770" y1="364" y2="364"/><line style="stroke: #A80036; stroke-width: 1.5;" x1="706" x2="770" y1="372" y2="372"/><!--MD5=[202eb055b61e3635d6abeb6d1809ebdd]
class ControllerVisitor--><rect fill="#FEFECE" filter="url(#fhhpkckf3htea)" height="48" id="ControllerVisitor" style="stroke: #A80036; stroke-width: 1.5;" width="131" x="806.5" y="332"/><ellipse cx="821.5" cy="348" fill="#B4A7E5" rx="11" ry="11" style="stroke: #A80036; stroke-width: 1.0;"/><path d="M822.4531,344.7813 L822.4531,351.2969 L824.1719,351.2969 C824.625,351.2969 824.7656,351.3281 824.9375,351.4531 C825.1719,351.625 825.2813,351.875 825.2813,352.1563 C825.2813,352.7188 824.9219,353 824.1719,353 L819.0313,353 C818.625,353 818.4219,352.9531 818.2656,352.8281 C818.0469,352.6719 817.9063,352.4063 817.9063,352.1563 C817.9063,351.8594 818.0625,351.5781 818.3125,351.4219 C818.4688,351.3125 818.5938,351.2969 819.0313,351.2969 L820.75,351.2969 L820.75,344.7813 L819.0313,344.7813 C818.6094,344.7813 818.4219,344.75 818.2656,344.6406 C818.0469,344.4688 817.9063,344.2188 817.9063,343.9375 C817.9063,343.6563 818.0625,343.3594 818.3125,343.2031 C818.4688,343.1094 818.5938,343.0938 819.0313,343.0938 L824.1719,343.0938 C824.625,343.0938 824.7656,343.125 824.9375,343.2344 C825.1719,343.4063 825.2813,343.6719 825.2813,343.9375 C825.2813,344.2344 825.1406,344.5156 824.875,344.6719 C824.75,344.75 824.5625,344.7813 824.1719,344.7813 Z "/><text fill="#000000" font-family="sans-serif" font-size="12" font-style="italic" lengthAdjust="spacingAndGlyphs" textLength="99" x="835.5" y="352.1543">ControllerVisitor</text><line style="stroke: #A80036; stroke-width: 1.5;" x1="807.5" x2="936.5" y1="364" y2="364"/><line style="stroke: #A80036; stroke-width: 1.5;" x1="807.5" x2="936.5" y1="372" y2="372"/><!--MD5=[d1bc2a5dc716c37dd141e10b95b4abcb]
link Mastermind to Logic--><path d="M642.6626,65.963 C642.6626,65.963 563.487,173.202 533.969,213.181 " fill="none" id="Mastermind-Logic" style="stroke: #A80036; stroke-width: 1.0;"/><polygon fill="#A80036" points="526.188,223.72,534.7519,218.8559,529.158,219.6977,528.3162,214.1038,526.188,223.72" style="stroke: #A80036; stroke-width: 1.0;"/><line style="stroke: #A80036; stroke-width: 1.0;" x1="529.158" x2="533.91" y1="219.6977" y2="213.2615"/><polygon fill="#A80036" points="649.79,56.309,643.0083,58.7602,642.6626,65.963,649.4443,63.5118,649.79,56.309" style="stroke: #A80036; stroke-width: 1.0;"/><!--MD5=[e0d6a58d416f5dd7f306d819ce9731e8]
link Mastermind to View--><path d="M683.8666,66.7331 C683.8666,66.7331 696.626,92.251 702.392,103.784 " fill="none" id="Mastermind-View" style="stroke: #A80036; stroke-width: 1.0;"/><polygon fill="#A80036" points="708.339,115.678,707.8913,105.8393,706.1027,111.206,700.7361,109.4174,708.339,115.678" style="stroke: #A80036; stroke-width: 1.0;"/><line style="stroke: #A80036; stroke-width: 1.0;" x1="706.1027" x2="702.5255" y1="111.206" y2="104.051"/><polygon fill="#A80036" points="678.5,56,677.6056,63.1554,683.8666,66.7331,684.761,59.5777,678.5,56" style="stroke: #A80036; stroke-width: 1.0;"/><!--MD5=[57070e04af1ab79c5a79c6aefe469b18]
link View to Controller--><path d="M701.773,164 C688.873,180.279 671.512,202.187 657.866,219.408 " fill="none" id="View-&gt;Controller" style="stroke: #A80036; stroke-width: 1.0; stroke-dasharray: 7.0,7.0;"/><polygon fill="#A80036" points="654.481,223.678,663.206,219.1092,657.5867,219.7595,656.9364,214.1401,654.481,223.678" style="stroke: #A80036; stroke-width: 1.0;"/><!--MD5=[a63dd7f30baaeb88fc8dd2ca46e0cc37]
reverse link View to ConsoleView--><path d="M770.423,152.773 C856.228,172.806 1029.96,213.369 1118.87,234.128 " fill="none" id="View&lt;-ConsoleView" style="stroke: #A80036; stroke-width: 1.0;"/><polygon fill="none" points="768.733,159.567,750.848,148.202,771.916,145.933,768.733,159.567" style="stroke: #A80036; stroke-width: 1.0;"/><!--MD5=[2832c63497e0908f9b5f0801b06020b8]
link ConsoleView to SecretCombinationView--><path d="M1140.9812,280.2451 C1140.9812,280.2451 1110.19,309.3914 1096.31,322.5243 " fill="none" id="ConsoleView-SecretCombinationView" style="stroke: #A80036; stroke-width: 1.0;"/><polygon fill="#A80036" points="1086.64,331.6784,1095.9275,328.401,1090.2729,328.243,1090.4309,322.5883,1086.64,331.6784" style="stroke: #A80036; stroke-width: 1.0;"/><line style="stroke: #A80036; stroke-width: 1.0;" x1="1090.2729" x2="1096.085" y1="328.243" y2="322.7424"/><polygon fill="#A80036" points="1149.7,272,1142.5922,273.2163,1140.9812,280.2451,1148.0889,279.0288,1149.7,272" style="stroke: #A80036; stroke-width: 1.0;"/><!--MD5=[80b3196b2862d5c3880465c269745b96]
link ConsoleView to ProposedCombinationView--><path d="M1207.0188,280.2451 C1207.0188,280.2451 1237.81,309.3914 1251.69,322.5243 " fill="none" id="ConsoleView-ProposedCombinationView" style="stroke: #A80036; stroke-width: 1.0;"/><polygon fill="#A80036" points="1261.36,331.6784,1257.5691,322.5883,1257.7271,328.243,1252.0725,328.401,1261.36,331.6784" style="stroke: #A80036; stroke-width: 1.0;"/><line style="stroke: #A80036; stroke-width: 1.0;" x1="1257.7271" x2="1251.915" y1="328.243" y2="322.7424"/><polygon fill="#A80036" points="1198.3,272,1199.9111,279.0288,1207.0188,280.2451,1205.4078,273.2163,1198.3,272" style="stroke: #A80036; stroke-width: 1.0;"/><!--MD5=[554d5fd7839b9b6673d460e9ccc2a548]
link ConsoleView to ResultCombinationView--><path d="M1240.7591,270.1298 C1240.7591,270.1298 1367.46,310.2137 1423.82,328.0472 " fill="none" id="ConsoleView-ResultCombinationView" style="stroke: #A80036; stroke-width: 1.0;"/><polygon fill="#A80036" points="1436.31,331.9986,1428.9393,325.4662,1431.5437,330.4878,1426.5221,333.0923,1436.31,331.9986" style="stroke: #A80036; stroke-width: 1.0;"/><line style="stroke: #A80036; stroke-width: 1.0;" x1="1431.5437" x2="1423.915" y1="330.4878" y2="328.0767"/><polygon fill="#A80036" points="1229.32,266.504,1233.831,272.1299,1240.7591,270.1298,1236.2482,264.5039,1229.32,266.504" style="stroke: #A80036; stroke-width: 1.0;"/><!--MD5=[354d6deacb49030493b7fd8cb23ebdce]
reverse link Controller to StartController--><path d="M569.677,269.245 C565.74,270.232 561.827,271.16 558,272 C378.117,311.4756 328.016,293.1358 148,332 C142.208,333.2504 136.22,334.6902 130.246,336.2267 " fill="none" id="Controller&lt;-StartController" style="stroke: #A80036; stroke-width: 1.0;"/><polygon fill="none" points="568.124,262.414,589.258,263.95,571.778,275.928,568.124,262.414" style="stroke: #A80036; stroke-width: 1.0;"/><!--MD5=[d45f03342f2432c669a4cb0ca24546da]
reverse link Controller to ProposeCombinationController--><path d="M570.055,268.471 C509.351,286.3949 419.247,312.9994 354.994,331.9713 " fill="none" id="Controller&lt;-ProposeCombinationController" style="stroke: #A80036; stroke-width: 1.0;"/><polygon fill="none" points="568.271,261.699,589.435,262.749,572.236,275.126,568.271,261.699" style="stroke: #A80036; stroke-width: 1.0;"/><!--MD5=[dfabfd7c269c7ef3ab5bdd4c723fcdb8]
reverse link Controller to ResumeController--><path d="M589.22,284.1682 C568.44,299.7901 544.547,317.7516 526.022,331.6784 " fill="none" id="Controller&lt;-ResumeController" style="stroke: #A80036; stroke-width: 1.0;"/><polygon fill="none" points="585.212,278.423,605.405,272,593.625,289.6138,585.212,278.423" style="stroke: #A80036; stroke-width: 1.0;"/><!--MD5=[f92f20b69025c2ad68ed7511c4cba574]
link Logic to StartController--><path d="M465.253,258.2601 C465.253,258.2601 261.239,302.7268 148,332 C146.387,332.4171 144.756,332.8432 143.114,333.2768 " fill="none" id="Logic-StartController" style="stroke: #A80036; stroke-width: 1.0;"/><polygon fill="#A80036" points="130.363,336.7188,140.0943,338.2357,135.1903,335.416,138.0099,330.512,130.363,336.7188" style="stroke: #A80036; stroke-width: 1.0;"/><line style="stroke: #A80036; stroke-width: 1.0;" x1="135.1903" x2="142.9135" y1="335.416" y2="333.3308"/><polygon fill="#A80036" points="476.988,255.752,470.2845,253.0944,465.253,258.2601,471.9566,260.9177,476.988,255.752" style="stroke: #A80036; stroke-width: 1.0;"/><!--MD5=[43e1f2b9c5a069493bde6e1cd92e7600]
link Logic to ProposeCombinationController--><path d="M465.8264,268.7262 C465.8264,268.7262 379.162,308.3226 339.62,326.3891 " fill="none" id="Logic-ProposeCombinationController" style="stroke: #A80036; stroke-width: 1.0;"/><polygon fill="#A80036" points="327.716,331.8279,337.5643,331.7267,332.2639,329.7504,334.2403,324.45,327.716,331.8279" style="stroke: #A80036; stroke-width: 1.0;"/><line style="stroke: #A80036; stroke-width: 1.0;" x1="332.2639" x2="339.5405" y1="329.7504" y2="326.4254"/><polygon fill="#A80036" points="476.741,263.739,469.6213,262.5944,465.8264,268.7262,472.9461,269.8708,476.741,263.739" style="stroke: #A80036; stroke-width: 1.0;"/><!--MD5=[b7efa6893a17b2274f4ce816105fff5e]
link Logic to ResumeController--><path d="M504.3907,283.8967 C504.3907,283.8967 501.216,307.9396 499.791,318.7237 " fill="none" id="Logic-ResumeController" style="stroke: #A80036; stroke-width: 1.0;"/><polygon fill="#A80036" points="498.08,331.6784,503.2241,323.2797,498.7348,326.7215,495.293,322.2321,498.08,331.6784" style="stroke: #A80036; stroke-width: 1.0;"/><line style="stroke: #A80036; stroke-width: 1.0;" x1="498.7348" x2="499.7825" y1="326.7215" y2="318.7903"/><polygon fill="#A80036" points="505.962,272,501.2108,277.4246,504.3907,283.8967,509.1419,278.4721,505.962,272" style="stroke: #A80036; stroke-width: 1.0;"/><!--MD5=[6741a2aa1692821dc3ed1fc83dbb2896]
link Logic to Game--><path d="M545.77,279.689 C545.77,279.689 581.674,309.6568 597.857,323.1644 " fill="none" id="Logic-Game" style="stroke: #A80036; stroke-width: 1.0;"/><polygon fill="#A80036" points="608.058,331.6784,603.7115,322.8405,604.2193,328.4745,598.5853,328.9824,608.058,331.6784" style="stroke: #A80036; stroke-width: 1.0;"/><line style="stroke: #A80036; stroke-width: 1.0;" x1="604.2193" x2="598.0775" y1="328.4745" y2="323.3483"/><polygon fill="#A80036" points="536.557,272,538.6005,278.9155,545.77,279.689,543.7265,272.7735,536.557,272" style="stroke: #A80036; stroke-width: 1.0;"/><!--MD5=[153babd62505a2f5355991eb7c8026e3]
link Logic to State--><path d="M552.2142,269.0022 C552.2142,269.0022 652.325,315.3426 692.8,334.0778 " fill="none" id="Logic-State" style="stroke: #A80036; stroke-width: 1.0;"/><polygon fill="#A80036" points="704.725,339.5978,698.2374,332.1876,700.1874,337.4977,694.8773,339.4478,704.725,339.5978" style="stroke: #A80036; stroke-width: 1.0;"/><line style="stroke: #A80036; stroke-width: 1.0;" x1="700.1874" x2="692.928" y1="337.4977" y2="334.1369"/><polygon fill="#A80036" points="541.324,263.962,545.089,270.1122,552.2142,269.0022,548.4492,262.8521,541.324,263.962" style="stroke: #A80036; stroke-width: 1.0;"/><!--MD5=[f165b4dc51fb23ae2f8abee7a18efa47]
reverse link ControllerVisitor to View--><path d="M843.795,315.2905 C812.28,270.921 762.311,200.569 736.556,164.309 " fill="none" id="ControllerVisitor&lt;-View" style="stroke: #A80036; stroke-width: 1.0;"/><polygon fill="none" points="849.59,311.3606,855.464,331.7196,838.176,319.4676,849.59,311.3606" style="stroke: #A80036; stroke-width: 1.0;"/><!--MD5=[ae37b17517c5efafb2d85820dda60839]
link Controller to ControllerVisitor--><path d="M682.626,269.942 C720.835,287.1038 775.036,311.4485 815.669,329.6988 " fill="none" id="Controller-&gt;ControllerVisitor" style="stroke: #A80036; stroke-width: 1.0; stroke-dasharray: 7.0,7.0;"/><polygon fill="#A80036" points="820.555,331.8934,813.9839,324.5572,815.9939,329.8449,810.7062,331.8549,820.555,331.8934" style="stroke: #A80036; stroke-width: 1.0;"/><!--MD5=[af3c341f28b4ad1078e652ece2043f79]
link Controller to Game--><path d="M636,272 C636,288.003 636,309.4461 636,326.528 " fill="none" id="Controller-&gt;Game" style="stroke: #A80036; stroke-width: 1.0;"/><polygon fill="#A80036" points="636,331.6784,640,322.6784,636,326.6784,632,322.6784,636,331.6784" style="stroke: #A80036; stroke-width: 1.0;"/><!--MD5=[680da7a522096492fc62467c7a6dd068]
link Controller to State--><path d="M658.132,272 C673.929,288.4168 695.236,310.5588 711.869,327.8444 " fill="none" id="Controller-&gt;State" style="stroke: #A80036; stroke-width: 1.0;"/><polygon fill="#A80036" points="715.558,331.6784,712.1997,322.4198,712.091,328.0756,706.4352,327.9669,715.558,331.6784" style="stroke: #A80036; stroke-width: 1.0;"/><!--MD5=[d64c5fafbf9ad7b629c3af0921e916f5]
@startuml
class Mastermind
Mastermind *-down-> Logic
Mastermind *-down-> View

interface View
View ..> Controller

class ConsoleView
View <|-down- ConsoleView
ConsoleView *-down-> SecretCombinationView
ConsoleView *-down-> ProposedCombinationView
ConsoleView *-down-> ResultCombinationView

class Controller
Controller <|-down- StartController
Controller <|-down- ProposeCombinationController
Controller <|-down- ResumeController

class Logic
Logic *-down-> StartController
Logic *-down-> ProposeCombinationController
Logic *-down-> ResumeController
Logic *-down-> Game
Logic *-down-> State

interface ControllerVisitor

ControllerVisitor <|-down- View
Controller ..> ControllerVisitor

Controller - -> Game
Controller - -> State
@enduml

PlantUML version 1.2019.11(Sun Sep 22 10:02:15 UTC 2019)
(GPL source distribution)
Java Runtime: Java(TM) SE Runtime Environment
JVM: Java HotSpot(TM) 64-Bit Server VM
Java Version: 1.7.0_25-b15
Operating System: Linux
Default Encoding: UTF-8
Language: en
Country: US
--></g></svg>